<svg width="930" height="927" viewBox="0 0 930 927" fill="none" xmlns="http://www.w3.org/2000/svg">
<path d="M627.127 704.106C629.647 723.193 607.824 735.793 592.554 724.067L401.919 577.677C400.36 576.48 398.645 575.501 396.822 574.768L173.934 485.134C155.949 477.902 155.855 452.474 173.786 445.11L398.039 353.001C399.825 352.268 401.505 351.298 403.033 350.118L594.927 201.964C610.271 190.117 632.245 202.912 629.516 222.104L595.697 459.947C595.421 461.893 595.411 463.867 595.668 465.816L627.127 704.106Z" fill="#806EFF" fill-opacity="0.31"/>
<path d="M655.135 463.545C655.135 567.177 570.112 651.214 465.197 651.214C360.283 651.214 275.26 567.177 275.26 463.545C275.26 359.914 360.283 275.877 465.197 275.877C570.112 275.877 655.135 359.914 655.135 463.545Z" stroke="#806EFF" stroke-width="2.70027"/>
<path d="M465.202 493.248C481.755 493.248 495.229 479.98 495.229 463.545C495.229 447.11 481.755 433.842 465.202 433.842C448.649 433.842 435.175 447.11 435.175 463.545C435.175 479.98 448.649 493.248 465.202 493.248Z" fill="#806EFF" stroke="white" stroke-width="5.40055"/>
<path d="M564.948 462.199C564.948 517.363 519.688 562.109 463.823 562.109C407.958 562.109 362.698 517.363 362.698 462.199C362.698 407.036 407.958 362.289 463.823 362.289C519.688 362.289 564.948 407.036 564.948 462.199Z" stroke="#F2F2F2" stroke-opacity="0.2" stroke-width="2.70027"/>
<path d="M588.108 476.451C588.108 473.074 589.016 470.503 590.83 468.739C592.645 467 595.152 466.067 598.353 465.941C599.034 465.916 600.143 465.903 601.68 465.903C603.242 465.903 604.377 465.916 605.082 465.941C608.258 466.067 610.753 467.012 612.567 468.777C614.407 470.541 615.327 473.099 615.327 476.451C615.327 478.694 614.924 480.597 614.117 482.159C613.336 483.722 612.303 484.906 611.017 485.713C609.732 486.519 608.359 486.96 606.897 487.036H606.821C606.62 487.036 606.443 486.948 606.292 486.771C606.166 486.62 606.103 486.444 606.103 486.242V484.163C606.103 483.659 606.393 483.344 606.972 483.218C608.863 482.789 610.186 482.021 610.942 480.912C611.723 479.803 612.114 478.316 612.114 476.451C612.114 472.116 609.707 469.873 604.893 469.722C604.213 469.696 603.167 469.684 601.755 469.684C600.344 469.684 599.273 469.696 598.542 469.722C593.728 469.873 591.322 472.116 591.322 476.451C591.322 478.316 591.7 479.803 592.456 480.912C593.237 482.046 594.573 482.814 596.463 483.218C596.791 483.293 597.017 483.407 597.143 483.558C597.269 483.709 597.332 483.911 597.332 484.163V486.242C597.332 486.469 597.257 486.658 597.106 486.809C596.98 486.985 596.803 487.061 596.576 487.036C595.089 486.96 593.703 486.519 592.418 485.713C591.133 484.906 590.087 483.722 589.28 482.159C588.499 480.597 588.108 478.694 588.108 476.451Z" fill="#F2F2F2"/>
<path d="M584.583 494.271C584.639 494.025 584.761 493.833 584.948 493.694C585.154 493.585 585.379 493.559 585.625 493.614L603.075 497.52C603.321 497.575 603.513 497.696 603.651 497.882C603.784 498.092 603.822 498.32 603.766 498.566L603.377 500.261C603.321 500.507 603.187 500.696 602.975 500.83C602.764 500.963 602.535 501.002 602.289 500.947L600.666 500.584C602.107 501.965 602.549 503.872 601.991 506.304L601.662 507.741C601.605 507.987 601.474 508.164 601.268 508.273C601.081 508.412 600.865 508.454 600.619 508.399L599.106 508.06C598.861 508.005 598.684 507.875 598.575 507.67C598.462 507.49 598.433 507.276 598.489 507.031L598.996 504.82C599.3 503.493 599.146 502.361 598.534 501.424C597.946 500.491 596.988 499.877 595.66 499.579L584.814 497.151C584.568 497.096 584.379 496.963 584.246 496.753C584.138 496.548 584.112 496.322 584.169 496.077L584.583 494.271Z" fill="#F2F2F2"/>
<path d="M575.635 517.903C576.593 515.49 578.101 513.845 580.158 512.967C582.229 512.121 584.585 512.129 587.226 512.991L588.438 513.421L589.587 513.907C592.06 515.055 593.764 516.635 594.701 518.647C595.628 520.682 595.622 522.883 594.682 525.249C593.65 527.848 592.016 529.539 589.78 530.321C587.567 531.112 585.051 530.961 582.232 529.868L581.633 529.635C581.398 529.544 581.23 529.385 581.131 529.157C581.046 528.962 581.05 528.747 581.143 528.513L585.971 516.356L585.653 516.233C584.098 515.711 582.613 515.662 581.197 516.086C579.795 516.543 578.815 517.474 578.257 518.879C577.829 519.957 577.692 520.917 577.845 521.76C578.013 522.636 578.266 523.329 578.606 523.839C578.804 524.16 578.908 524.376 578.918 524.487C578.942 524.632 578.898 524.845 578.787 525.126L578.103 526.847C578.019 527.058 577.891 527.211 577.717 527.306C577.544 527.401 577.352 527.408 577.14 527.325C576.623 527.125 576.131 526.556 575.663 525.617C575.185 524.702 574.909 523.555 574.834 522.174C574.773 520.826 575.04 519.402 575.635 517.903ZM584.579 526.926L584.685 526.967C586.307 527.596 587.799 527.661 589.163 527.163C590.541 526.697 591.523 525.726 592.109 524.251C592.695 522.775 592.643 521.403 591.954 520.136C591.278 518.901 590.13 517.969 588.508 517.34L588.403 517.299L584.579 526.926Z" fill="#F2F2F2"/>
<path d="M563.769 536.416C564.445 535.382 565.285 534.559 566.29 533.944C567.294 533.33 568.33 532.99 569.397 532.924C570.471 532.893 571.454 533.162 572.346 533.732C573.748 534.628 574.522 535.93 574.669 537.639C574.823 539.382 574.397 541.323 573.389 543.46L570.974 548.601L571.898 549.191C574.064 550.575 575.955 550.034 577.569 547.566C578.176 546.638 578.471 545.75 578.454 544.902C578.458 544.067 578.292 543.333 577.954 542.698C577.804 542.513 577.721 542.34 577.705 542.181C577.676 542.042 577.716 541.888 577.826 541.72L578.716 540.359C578.841 540.17 579.015 540.042 579.239 539.975C579.47 539.944 579.682 539.989 579.873 540.111C580.369 540.458 580.79 541.056 581.138 541.906C581.492 542.791 581.593 543.857 581.439 545.104C581.306 546.366 580.785 547.692 579.874 549.084C578.328 551.446 576.655 552.784 574.853 553.098C573.072 553.426 571.354 553.06 569.697 552.002L559.376 545.407C559.164 545.271 559.031 545.082 558.979 544.839C558.935 544.632 558.981 544.422 559.119 544.211L560.072 542.756C560.21 542.545 560.391 542.407 560.615 542.341C560.846 542.309 561.068 542.361 561.28 542.497L562.65 543.372C562.274 542.474 562.142 541.433 562.255 540.248C562.367 539.064 562.872 537.787 563.769 536.416ZM565.723 538.607C564.826 539.977 564.541 541.38 564.867 542.815C565.201 544.284 566.217 545.561 567.916 546.647L568.808 547.217L570.668 543.201C571.435 541.568 571.812 540.209 571.799 539.125C571.808 538.053 571.43 537.273 570.665 536.785C569.816 536.242 568.929 536.169 568.007 536.567C567.105 536.978 566.344 537.658 565.723 538.607Z" fill="#F2F2F2"/>
<path d="M545.759 556.091C548.561 553.261 551.556 553.388 554.745 556.471L561.92 563.408L563.995 561.313C564.172 561.134 564.377 561.034 564.61 561.014C564.843 561.029 565.051 561.124 565.232 561.299L566.156 562.193C566.337 562.368 566.429 562.562 566.431 562.774C566.434 563.022 566.347 563.236 566.169 563.415L564.094 565.51L568.633 569.898C568.814 570.074 568.906 570.267 568.909 570.48C568.911 570.728 568.824 570.941 568.647 571.121L567.396 572.383C567.219 572.562 567.014 572.644 566.781 572.629C566.548 572.649 566.341 572.572 566.16 572.397L561.621 568.008L558.322 571.339C558.145 571.518 557.94 571.6 557.707 571.585C557.474 571.606 557.267 571.528 557.086 571.353L556.162 570.459C555.98 570.284 555.888 570.073 555.886 569.825C555.883 569.612 555.971 569.416 556.148 569.237L559.447 565.906L552.462 559.153C551.556 558.277 550.717 557.764 549.944 557.613C549.19 557.479 548.467 557.762 547.775 558.46L546.152 560.099C545.975 560.278 545.77 560.36 545.537 560.345C545.304 560.365 545.097 560.287 544.916 560.112L543.937 559.166C543.756 558.991 543.664 558.78 543.661 558.532C543.659 558.319 543.746 558.123 543.924 557.944L545.759 556.091Z" fill="#F2F2F2"/>
<path d="M550.7 581.166C550.901 581.015 551.119 580.947 551.352 580.962C551.581 581.011 551.771 581.136 551.924 581.336L553.165 582.958C553.318 583.158 553.387 583.373 553.373 583.604C553.339 583.85 553.221 584.048 553.019 584.199L551.111 585.624C550.909 585.775 550.684 585.833 550.435 585.798C550.187 585.764 549.986 585.646 549.833 585.446L548.592 583.824C548.439 583.624 548.38 583.401 548.414 583.156C548.464 582.93 548.589 582.742 548.791 582.591L550.7 581.166ZM536.288 562.819C536.49 562.668 536.707 562.6 536.94 562.615C537.169 562.664 537.359 562.789 537.513 562.989L548.398 577.223C548.551 577.423 548.613 577.629 548.584 577.839C548.55 578.085 548.432 578.283 548.23 578.434L546.776 579.52C546.574 579.671 546.359 579.721 546.13 579.671C545.897 579.657 545.704 579.55 545.551 579.349L534.665 565.116C534.512 564.916 534.453 564.693 534.487 564.447C534.516 564.236 534.632 564.056 534.834 563.905L536.288 562.819Z" fill="#F2F2F2"/>
<path d="M520.799 572.393C521.36 572.055 521.925 572.082 522.493 572.475L537.703 583.782L537.967 584.064C538.086 584.257 538.121 584.457 538.071 584.664C538.021 584.87 537.899 585.032 537.705 585.15L536.151 586.087C535.784 586.309 535.402 586.289 535.004 586.029L522.253 576.328L525.165 591.967C525.196 592.449 525.049 592.787 524.726 592.983L523.14 593.94C522.967 594.044 522.776 594.071 522.568 594.02C522.337 593.983 522.162 593.868 522.043 593.675L521.909 593.314L518.706 574.76C518.612 574.081 518.846 573.572 519.407 573.233L520.799 572.393Z" fill="#F2F2F2"/>
<path d="M496.71 581.046C499.154 580.171 501.385 580.215 503.403 581.179C505.405 582.175 506.955 583.949 508.052 586.5L508.53 587.694L508.924 588.878C509.696 591.493 509.635 593.817 508.743 595.85C507.828 597.891 506.172 599.341 503.775 600.199C501.142 601.142 498.793 601.033 496.729 599.871C494.675 598.733 493.126 596.745 492.085 593.905L491.864 593.302C491.777 593.065 491.786 592.834 491.892 592.609C491.982 592.416 492.146 592.277 492.383 592.192L504.697 587.782L504.58 587.463C503.945 585.95 503 584.803 501.747 584.02C500.479 583.27 499.133 583.15 497.709 583.66C496.618 584.05 495.806 584.582 495.274 585.254C494.727 585.959 494.374 586.607 494.216 587.199C494.106 587.56 494.013 587.781 493.935 587.862C493.843 587.975 493.654 588.083 493.369 588.185L491.625 588.81C491.412 588.886 491.212 588.891 491.027 588.823C490.841 588.756 490.709 588.616 490.631 588.403C490.44 587.882 490.542 587.136 490.937 586.165C491.309 585.202 491.988 584.236 492.975 583.267C493.947 582.33 495.192 581.59 496.71 581.046ZM495.844 593.724L495.883 593.83C496.482 595.463 497.418 596.626 498.693 597.321C499.953 598.048 501.33 598.143 502.825 597.608C504.32 597.073 505.315 596.127 505.811 594.772C506.292 593.448 506.233 591.97 505.634 590.338L505.595 590.231L495.844 593.724Z" fill="#F2F2F2"/>
<path d="M441.784 582.785C442.033 582.823 442.233 582.93 442.384 583.106C442.506 583.303 442.548 583.526 442.509 583.775L438.677 608.162C438.634 608.436 438.526 608.636 438.353 608.763C438.152 608.91 437.926 608.965 437.677 608.927L429.195 607.625C425.433 607.048 422.851 605.785 421.448 603.836C420.041 601.912 419.566 599.251 420.023 595.854C420.112 595.128 420.252 594.155 420.444 592.935C420.635 591.715 420.802 590.734 420.945 589.99C421.391 587.637 422.093 585.768 423.05 584.385C423.978 583.023 425.259 582.098 426.892 581.609C428.525 581.12 430.599 581.069 433.115 581.455L441.784 582.785ZM432.803 584.658C431.085 584.394 429.69 584.422 428.619 584.742C427.523 585.059 426.671 585.693 426.062 586.645C425.425 587.618 424.944 588.972 424.62 590.707C424.336 592.193 424.164 593.123 424.106 593.497C424.043 593.895 423.923 594.82 423.746 596.272C423.409 598.744 423.712 600.627 424.657 601.919C425.599 603.236 427.34 604.09 429.88 604.48L435.373 605.322L438.483 585.529L432.803 584.658Z" fill="#F2F2F2"/>
<path d="M406.876 570.529C409.264 571.548 410.858 573.092 411.66 575.16C412.428 577.241 412.327 579.582 411.356 582.181L410.876 583.374L410.341 584.502C409.089 586.927 407.433 588.577 405.373 589.452C403.29 590.316 401.078 590.249 398.737 589.25C396.164 588.153 394.529 586.482 393.831 584.239C393.123 582.019 393.375 579.524 394.586 576.752L394.843 576.163C394.944 575.932 395.111 575.771 395.344 575.678C395.544 575.599 395.76 575.609 395.991 575.708L408.022 580.841L408.158 580.529C408.745 578.999 408.853 577.524 408.483 576.106C408.079 574.7 407.182 573.701 405.791 573.108C404.725 572.653 403.764 572.49 402.911 572.619C402.023 572.761 401.317 572.993 400.79 573.317C400.461 573.505 400.239 573.602 400.126 573.609C399.98 573.629 399.768 573.579 399.49 573.461L397.786 572.734C397.577 572.645 397.429 572.513 397.34 572.338C397.252 572.163 397.253 571.972 397.344 571.764C397.566 571.256 398.157 570.782 399.119 570.343C400.058 569.894 401.223 569.652 402.614 569.615C403.972 569.592 405.393 569.896 406.876 570.529ZM397.45 579.166L397.405 579.27C396.709 580.864 396.584 582.345 397.031 583.714C397.445 585.096 398.382 586.098 399.842 586.722C401.302 587.345 402.683 587.331 403.985 586.681C405.254 586.044 406.236 584.929 406.932 583.335L406.978 583.231L397.45 579.166Z" fill="#F2F2F2"/>
<path d="M387.385 557.598C388.839 558.596 389.906 559.665 390.585 560.803C391.228 561.947 391.589 562.989 391.668 563.93C391.725 564.856 391.617 565.514 391.341 565.906C391.196 566.112 391.015 566.217 390.797 566.22C390.544 566.23 390.334 566.178 390.168 566.064L388.765 565.101C388.557 564.959 388.443 564.727 388.421 564.407C388.328 563.487 388.107 562.663 387.757 561.934C387.407 561.205 386.744 560.505 385.767 559.835C384.686 559.093 383.668 558.701 382.714 558.657C381.724 558.619 380.968 558.972 380.446 559.714C380.098 560.209 379.961 560.711 380.035 561.22C380.073 561.735 380.355 562.341 380.882 563.039C381.373 563.742 382.182 564.695 383.309 565.896C384.842 567.528 385.732 568.98 385.979 570.25C386.205 571.505 385.906 572.721 385.08 573.896C384.529 574.68 383.779 575.265 382.829 575.652C381.844 576.046 380.752 576.153 379.554 575.973C378.321 575.799 377.071 575.277 375.803 574.408C374.473 573.495 373.493 572.501 372.862 571.427C372.231 570.352 371.897 569.359 371.86 568.447C371.788 567.542 371.89 566.893 372.165 566.501C372.295 566.316 372.477 566.211 372.709 566.187C372.921 566.149 373.12 566.194 373.307 566.322L374.616 567.221C374.866 567.392 375.001 567.638 375.022 567.958C375.08 568.578 375.16 569.076 375.265 569.454C375.334 569.837 375.539 570.269 375.881 570.747C376.201 571.212 376.704 571.679 377.39 572.15C378.387 572.834 379.308 573.145 380.153 573.083C380.983 573.041 381.637 572.68 382.115 572C382.42 571.567 382.566 571.117 382.555 570.651C382.529 570.205 382.281 569.638 381.811 568.948C381.32 568.245 380.545 567.331 379.487 566.207C377.802 564.44 376.83 562.887 376.57 561.547C376.275 560.214 376.548 558.949 377.388 557.753C378.012 556.867 378.836 556.241 379.863 555.876C380.89 555.51 382.057 555.471 383.365 555.757C384.653 556.029 385.992 556.643 387.385 557.598Z" fill="#F2F2F2"/>
<path d="M359.586 563.896C359.766 564.072 359.865 564.276 359.884 564.506C359.867 564.736 359.769 564.94 359.59 565.118L358.143 566.558C357.965 566.736 357.759 566.834 357.526 566.853C357.275 566.854 357.06 566.766 356.88 566.589L355.18 564.922C355 564.745 354.909 564.533 354.908 564.285C354.907 564.037 354.996 563.824 355.175 563.646L356.622 562.206C356.8 562.028 357.015 561.939 357.266 561.938C357.499 561.955 357.706 562.051 357.886 562.228L359.586 563.896ZM375.902 547.229C376.082 547.406 376.181 547.609 376.2 547.839C376.183 548.07 376.085 548.274 375.906 548.452L363.206 561.093C363.027 561.27 362.83 561.36 362.615 561.36C362.364 561.361 362.149 561.274 361.969 561.097L360.674 559.826C360.494 559.65 360.412 559.446 360.429 559.216C360.411 558.986 360.491 558.782 360.669 558.604L373.369 545.963C373.548 545.785 373.763 545.696 374.014 545.695C374.229 545.694 374.426 545.782 374.606 545.959L375.902 547.229Z" fill="#F2F2F2"/>
<path d="M369.731 527.305C371.057 528.89 371.851 530.389 372.113 531.802C372.395 533.199 372.364 534.379 372.021 535.343C371.677 536.307 371.248 537.032 370.734 537.517C370.555 537.696 370.341 537.773 370.091 537.75C369.825 537.707 369.619 537.598 369.474 537.424L368.309 536.033C368.164 535.859 368.081 535.682 368.062 535.502C368.063 535.306 368.148 535.074 368.317 534.805C368.748 534.063 368.969 533.248 368.981 532.359C368.997 531.435 368.536 530.413 367.598 529.292C366.401 527.861 365.207 527.063 364.017 526.897C362.846 526.715 361.479 527.261 359.918 528.537L357.927 530.163C358.992 530.14 360.043 530.355 361.08 530.809C362.098 531.279 363.051 532.046 363.941 533.109C365.655 535.158 366.287 537.229 365.837 539.322C365.351 541.411 364.117 543.314 362.136 545.03L361.34 545.729L360.525 546.346C358.467 547.93 356.345 548.752 354.161 548.812C351.957 548.888 350.006 547.911 348.308 545.881C346.61 543.852 346.035 541.653 346.583 539.285L345.325 540.313C345.129 540.473 344.915 540.55 344.681 540.546C344.432 540.522 344.226 540.414 344.064 540.221L342.948 538.887C342.786 538.694 342.717 538.473 342.741 538.227C342.764 537.98 342.873 537.776 343.068 537.617L357.267 526.017C361.776 522.333 365.93 522.763 369.731 527.305ZM361.114 534.443C360.014 533.128 358.742 532.492 357.298 532.533C355.853 532.574 354.502 533.06 353.243 533.99C353.051 534.114 352.702 534.384 352.194 534.798C351.706 535.197 351.383 535.478 351.223 535.641C350.062 536.687 349.325 537.908 349.013 539.302C348.684 540.676 349.078 542.031 350.194 543.364C351.342 544.737 352.604 545.381 353.981 545.298C355.357 545.215 356.772 544.628 358.226 543.538L359.011 542.946L359.777 542.271C361.115 541.081 361.964 539.818 362.324 538.481C362.666 537.161 362.262 535.815 361.114 534.443Z" fill="#F2F2F2"/>
<path d="M354.736 517.477C354.855 517.699 354.89 517.923 354.84 518.149C354.755 518.364 354.602 518.53 354.379 518.648L338.521 526.992C338.298 527.109 338.084 527.137 337.878 527.074C337.638 527.001 337.459 526.853 337.339 526.631L336.496 525.067C336.377 524.845 336.359 524.627 336.443 524.412C336.494 524.186 336.63 524.014 336.853 523.897L338.325 523.122C337.153 522.913 336.111 522.493 335.199 521.863C334.274 521.21 333.46 520.229 332.754 518.92C331.606 516.79 331.407 514.774 332.156 512.87C332.871 510.956 334.366 509.401 336.641 508.204L346.075 503.239C346.298 503.122 346.53 503.1 346.769 503.173C346.975 503.236 347.138 503.378 347.257 503.6L348.154 505.264C348.273 505.486 348.308 505.71 348.258 505.935C348.174 506.151 348.02 506.317 347.797 506.434L338.53 511.311C336.946 512.144 335.929 513.178 335.477 514.412C335.014 515.624 335.171 516.951 335.948 518.393C336.701 519.791 337.745 520.665 339.08 521.017C340.392 521.38 341.829 521.151 343.39 520.329L352.657 515.453C352.88 515.336 353.111 515.313 353.351 515.387C353.557 515.449 353.719 515.592 353.839 515.813L354.736 517.477Z" fill="#F2F2F2"/>
<path d="M342.585 449.923C342.552 452.014 342.196 453.824 341.517 455.351C340.838 456.853 339.963 457.999 338.892 458.789C337.796 459.579 336.63 459.99 335.394 460.021C335.193 460.018 335.018 459.94 334.869 459.786C334.695 459.607 334.61 459.404 334.614 459.177L334.644 457.25C334.651 456.771 334.908 456.447 335.415 456.278C336.477 456.068 337.394 455.439 338.167 454.392C338.94 453.32 339.341 451.814 339.372 449.874C339.404 447.782 339.064 446.202 338.349 445.132C337.61 444.062 336.572 443.517 335.237 443.497C334.38 443.483 333.683 443.737 333.145 444.259C332.608 444.755 332.13 445.503 331.711 446.505C331.292 447.507 330.765 449.011 330.129 451.018C329.543 452.975 328.927 454.528 328.279 455.678C327.631 456.828 326.836 457.685 325.894 458.25C324.953 458.816 323.777 459.088 322.365 459.066C321.005 459.045 319.788 458.661 318.716 457.914C317.644 457.142 316.817 456.058 316.234 454.662C315.625 453.267 315.336 451.612 315.366 449.696C315.397 447.731 315.776 446.048 316.504 444.647C317.206 443.247 318.092 442.189 319.162 441.474C320.232 440.76 321.296 440.385 322.355 440.351C322.557 440.354 322.732 440.432 322.881 440.586C323.03 440.714 323.103 440.904 323.099 441.156L323.068 443.16C323.059 443.689 322.815 444.013 322.334 444.131C321.273 444.267 320.395 444.845 319.698 445.868C318.977 446.891 318.603 448.183 318.579 449.745C318.552 451.459 318.859 452.812 319.499 453.805C320.138 454.798 321.101 455.304 322.386 455.323C323.243 455.337 323.952 455.121 324.514 454.675C325.075 454.205 325.578 453.494 326.021 452.543C326.44 451.592 326.928 450.2 327.486 448.369C328.099 446.236 328.73 444.557 329.379 443.332C330.003 442.106 330.786 441.198 331.728 440.607C332.645 440.016 333.808 439.732 335.22 439.753C337.563 439.789 339.389 440.724 340.696 442.559C342.003 444.394 342.633 446.848 342.585 449.923Z" fill="#F2F2F2"/>
<path d="M348.401 424.609C347.781 427.13 346.514 428.964 344.597 430.112C342.662 431.228 340.328 431.537 337.596 431.038L336.338 430.775L335.133 430.447C332.529 429.641 330.625 428.304 329.423 426.434C328.228 424.541 327.933 422.358 328.54 419.886C329.207 417.169 330.594 415.273 332.701 414.197C334.783 413.116 337.295 412.927 340.236 413.632L340.86 413.782C341.106 413.841 341.293 413.977 341.422 414.189C341.533 414.371 341.559 414.585 341.499 414.829L338.379 427.532L338.71 427.612C340.321 427.92 341.799 427.769 343.142 427.158C344.468 426.517 345.311 425.462 345.671 423.994C345.948 422.868 345.952 421.897 345.686 421.081C345.4 420.236 345.055 419.582 344.649 419.122C344.409 418.832 344.276 418.631 344.251 418.522C344.208 418.382 344.222 418.165 344.294 417.871L344.736 416.072C344.79 415.852 344.896 415.683 345.055 415.566C345.213 415.448 345.403 415.416 345.624 415.469C346.163 415.598 346.728 416.096 347.32 416.964C347.917 417.807 348.347 418.908 348.61 420.267C348.855 421.595 348.785 423.043 348.401 424.609ZM338.313 416.865L338.203 416.838C336.512 416.433 335.025 416.569 333.743 417.246C332.442 417.893 331.602 418.988 331.224 420.53C330.845 422.071 331.084 423.425 331.94 424.589C332.777 425.722 334.041 426.492 335.732 426.898L335.843 426.924L338.313 416.865Z" fill="#F2F2F2"/>
<path d="M355.388 408.455C355.28 408.683 355.119 408.844 354.906 408.939C354.681 409.001 354.454 408.979 354.225 408.872L338.021 401.312C337.793 401.206 337.631 401.047 337.537 400.836C337.453 400.602 337.465 400.371 337.574 400.144L338.324 398.575C338.432 398.348 338.604 398.192 338.84 398.107C339.076 398.022 339.309 398.033 339.537 398.14L341.044 398.843C339.937 397.186 339.921 395.232 340.997 392.981L341.632 391.651C341.741 391.423 341.908 391.279 342.133 391.217C342.346 391.121 342.567 391.127 342.795 391.234L344.2 391.889C344.428 391.996 344.573 392.16 344.634 392.384C344.705 392.584 344.687 392.798 344.578 393.025L343.6 395.072C343.014 396.3 342.917 397.437 343.311 398.483C343.683 399.518 344.485 400.323 345.718 400.899L355.79 405.598C356.019 405.704 356.175 405.875 356.258 406.108C356.319 406.331 356.296 406.557 356.187 406.784L355.388 408.455Z" fill="#F2F2F2"/>
<path d="M368.067 388.398C367.7 388.941 367.176 389.154 366.495 389.037L347.938 385.173L347.58 385.027C347.391 384.902 347.275 384.736 347.234 384.527C347.192 384.319 347.235 384.12 347.362 383.932L348.378 382.429C348.618 382.074 348.973 381.931 349.443 382L365.093 385.44L355.877 372.477C355.647 372.053 355.637 371.684 355.849 371.371L356.886 369.836C356.999 369.669 357.16 369.565 357.371 369.523C357.596 369.46 357.803 369.491 357.993 369.616L358.266 369.886L368.971 385.372C369.342 385.949 369.344 386.509 368.977 387.051L368.067 388.398Z" fill="#F2F2F2"/>
<path d="M364.349 358.691C364.169 358.867 363.962 358.964 363.729 358.981C363.496 358.962 363.29 358.864 363.112 358.686L361.665 357.246C361.486 357.068 361.388 356.864 361.371 356.634C361.372 356.386 361.462 356.174 361.642 355.997L363.343 354.329C363.522 354.153 363.738 354.065 363.989 354.066C364.24 354.067 364.455 354.156 364.633 354.334L366.08 355.774C366.259 355.952 366.348 356.165 366.347 356.413C366.328 356.643 366.229 356.846 366.049 357.023L364.349 358.691ZM381.096 374.934C380.916 375.11 380.71 375.207 380.477 375.224C380.244 375.205 380.038 375.107 379.859 374.929L367.159 362.288C366.98 362.11 366.891 361.915 366.892 361.703C366.893 361.455 366.983 361.242 367.163 361.066L368.459 359.795C368.639 359.619 368.845 359.54 369.078 359.558C369.311 359.541 369.517 359.622 369.696 359.8L382.396 372.441C382.574 372.618 382.663 372.831 382.662 373.079C382.662 373.292 382.571 373.486 382.391 373.663L381.096 374.934Z" fill="#F2F2F2"/>
<path d="M396.027 363.15C393.926 364.841 391.796 365.585 389.636 365.382C387.481 365.144 385.49 363.997 383.664 361.941L382.672 360.798L381.74 359.607C380.071 357.424 379.345 355.275 379.561 353.16C379.78 351.01 380.941 349.089 383.041 347.399C384.455 346.261 385.861 345.55 387.259 345.265C388.658 344.98 389.897 345.018 390.977 345.378C392.077 345.722 392.952 346.247 393.6 346.955C393.78 347.133 393.849 347.336 393.808 347.563C393.767 347.791 393.648 347.983 393.452 348.141L392.038 349.279C391.842 349.437 391.663 349.517 391.5 349.518C391.338 349.519 391.112 349.443 390.821 349.289C389.718 348.624 388.702 348.342 387.772 348.443C386.827 348.524 385.893 348.936 384.97 349.679C383.753 350.659 383.094 351.82 382.993 353.164C382.895 354.471 383.45 355.917 384.658 357.501L385.494 358.575L386.341 359.543C387.683 361.051 389.011 361.89 390.327 362.06C391.643 362.23 392.92 361.818 394.156 360.822C395.079 360.079 395.684 359.268 395.972 358.39C396.244 357.491 396.162 356.441 395.727 355.239C395.632 354.927 395.602 354.692 395.636 354.535C395.654 354.359 395.762 354.192 395.958 354.034L397.371 352.896C397.568 352.738 397.791 352.672 398.04 352.697C398.274 352.703 398.461 352.812 398.602 353.022C399.156 353.773 399.5 354.725 399.634 355.879C399.772 356.997 399.559 358.204 398.994 359.5C398.449 360.78 397.46 361.996 396.027 363.15Z" fill="#F2F2F2"/>
<path d="M414.937 352.781C412.662 354.031 410.451 354.341 408.302 353.711C406.164 353.046 404.348 351.542 402.855 349.2L402.192 348.098L401.613 346.993C400.432 344.536 400.119 342.235 400.675 340.088C401.252 337.93 402.657 336.238 404.887 335.011C407.338 333.663 409.677 333.399 411.902 334.217C414.115 335.013 415.963 336.729 417.447 339.364L417.762 339.924C417.886 340.144 417.914 340.373 417.846 340.612C417.787 340.817 417.648 340.98 417.427 341.101L405.965 347.403L406.132 347.7C407.002 349.091 408.119 350.073 409.483 350.646C410.857 351.185 412.206 351.09 413.531 350.361C414.547 349.803 415.264 349.15 415.682 348.402C416.109 347.621 416.354 346.925 416.416 346.316C416.466 345.943 416.523 345.711 416.587 345.618C416.66 345.492 416.829 345.355 417.094 345.21L418.717 344.317C418.916 344.208 419.113 344.172 419.307 344.209C419.501 344.246 419.654 344.363 419.766 344.56C420.038 345.044 420.056 345.796 419.821 346.816C419.608 347.825 419.092 348.885 418.272 349.998C417.462 351.076 416.35 352.003 414.937 352.781ZM413.762 340.14L413.706 340.041C412.853 338.526 411.741 337.527 410.37 337.044C409.009 336.527 407.632 336.651 406.241 337.416C404.85 338.181 404.018 339.271 403.745 340.687C403.481 342.068 403.776 343.516 404.63 345.032L404.685 345.13L413.762 340.14Z" fill="#F2F2F2"/>
<path d="M465.418 342.364C465.217 342.366 465.04 342.291 464.887 342.141C464.735 341.991 464.658 341.815 464.656 341.614C464.655 341.412 464.666 341.273 464.691 341.198L473.875 316.668C474.072 316.112 474.473 315.832 475.078 315.827L477.649 315.807C478.254 315.803 478.659 316.077 478.865 316.63L488.393 341.017L488.472 341.432C488.474 341.634 488.399 341.811 488.249 341.963C488.099 342.115 487.924 342.192 487.722 342.194L485.794 342.209C485.517 342.211 485.302 342.149 485.15 342.025C484.998 341.874 484.896 341.724 484.844 341.573L482.723 336.221L470.324 336.316L468.286 341.7C468.237 341.851 468.125 342.003 467.95 342.156C467.799 342.283 467.598 342.347 467.346 342.349L465.418 342.364ZM481.601 332.978L476.393 319.597L471.394 333.056L481.601 332.978Z" fill="#F2F2F2"/>
<path d="M503.382 356.566C501.376 356.069 499.848 355.327 498.798 354.34C497.742 353.377 497.066 352.405 496.769 351.422C496.473 350.44 496.386 349.601 496.511 348.905C496.549 348.654 496.675 348.465 496.889 348.336C497.128 348.214 497.358 348.18 497.578 348.234L499.34 348.671C499.56 348.725 499.731 348.82 499.853 348.954C499.969 349.112 500.038 349.35 500.062 349.668C500.157 350.522 500.463 351.312 500.981 352.037C501.518 352.793 502.495 353.347 503.914 353.699C505.724 354.147 507.157 354.087 508.211 353.517C509.26 352.972 510.032 351.722 510.528 349.768L511.16 347.276C510.319 347.925 509.348 348.372 508.245 348.618C507.149 348.84 505.928 348.784 504.583 348.451C501.989 347.808 500.252 346.508 499.371 344.55C498.52 342.574 498.381 340.306 498.952 337.748L499.176 336.713L499.463 335.732C500.175 333.234 501.39 331.316 503.108 329.976C504.832 328.611 506.979 328.247 509.547 328.884C512.116 329.52 513.883 330.957 514.849 333.196L515.249 331.62C515.311 331.376 515.437 331.187 515.627 331.052C515.842 330.923 516.071 330.889 516.316 330.95L518.004 331.368C518.249 331.429 518.435 331.566 518.563 331.779C518.691 331.993 518.724 332.221 518.662 332.466L514.152 350.237C512.721 355.88 509.13 357.99 503.382 356.566ZM506.06 345.701C507.724 346.113 509.123 345.876 510.258 344.989C511.393 344.101 512.19 342.91 512.647 341.413C512.728 341.2 512.848 340.775 513.009 340.14C513.164 339.529 513.257 339.111 513.289 338.885C513.6 337.352 513.466 335.93 512.889 334.619C512.336 333.313 511.216 332.452 509.528 332.033C507.791 331.603 506.395 331.828 505.339 332.709C504.284 333.59 503.496 334.901 502.977 336.642L502.698 337.585L502.484 338.584C502.117 340.336 502.186 341.859 502.69 343.153C503.2 344.421 504.323 345.271 506.06 345.701Z" fill="#F2F2F2"/>
<path d="M527.801 359.079C525.457 357.964 523.927 356.357 523.211 354.259C522.529 352.148 522.727 349.815 523.804 347.257L524.333 346.085L524.913 344.98C526.264 342.609 527.987 341.028 530.082 340.238C532.199 339.459 534.407 339.616 536.706 340.71C539.232 341.911 540.798 343.646 541.403 345.915C542.018 348.162 541.664 350.644 540.34 353.363L540.059 353.941C539.948 354.168 539.775 354.322 539.538 354.405C539.335 354.476 539.12 354.457 538.893 354.349L527.08 348.732L526.931 349.038C526.282 350.543 526.114 352.011 526.425 353.443C526.771 354.863 527.626 355.898 528.992 356.548C530.039 357.045 530.992 357.247 531.85 357.153C532.743 357.048 533.459 356.844 533.998 356.542C534.335 356.368 534.561 356.28 534.674 356.278C534.821 356.264 535.031 356.322 535.304 356.452L536.977 357.247C537.181 357.345 537.325 357.482 537.406 357.661C537.487 357.839 537.478 358.03 537.379 358.234C537.136 358.732 536.525 359.181 535.546 359.581C534.589 359.991 533.415 360.186 532.023 360.166C530.665 360.134 529.258 359.772 527.801 359.079ZM537.577 350.835L537.626 350.733C538.388 349.17 538.573 347.695 538.183 346.31C537.827 344.912 536.931 343.873 535.497 343.191C534.064 342.509 532.683 342.466 531.355 343.063C530.061 343.647 529.034 344.721 528.272 346.285L528.222 346.387L537.577 350.835Z" fill="#F2F2F2"/>
<path d="M542.01 368.716C541.808 368.565 541.682 368.377 541.633 368.151C541.619 367.921 541.688 367.705 541.841 367.505L552.727 353.271C552.88 353.071 553.063 352.956 553.276 352.927C553.524 352.892 553.75 352.95 553.952 353.101L555.375 354.164C555.577 354.315 555.685 354.506 555.699 354.736C555.749 354.962 555.697 355.175 555.544 355.375L554.533 356.696C555.685 356.393 556.808 356.335 557.902 356.523C559.016 356.726 560.169 357.272 561.36 358.162C563.299 359.609 564.328 361.353 564.449 363.394C564.606 365.429 563.903 367.468 562.342 369.51L555.866 377.978C555.712 378.178 555.512 378.295 555.263 378.33C555.05 378.36 554.843 378.299 554.641 378.148L553.126 377.017C552.924 376.866 552.799 376.678 552.749 376.453C552.735 376.222 552.805 376.007 552.958 375.806L559.319 367.488C560.406 366.067 560.895 364.702 560.785 363.394C560.696 362.1 559.995 360.963 558.682 359.983C557.41 359.033 556.094 358.68 554.734 358.922C553.39 359.145 552.182 359.957 551.11 361.359L544.749 369.677C544.596 369.877 544.395 369.994 544.147 370.029C543.934 370.058 543.726 369.998 543.524 369.847L542.01 368.716Z" fill="#F2F2F2"/>
<path d="M564.27 391.367C562.472 389.357 561.631 387.281 561.745 385.141C561.895 383.002 562.972 380.992 564.974 379.11L566.088 378.088L567.252 377.122C569.389 375.39 571.53 374.591 573.678 374.724C575.86 374.859 577.85 375.931 579.648 377.942C580.857 379.294 581.635 380.656 581.981 382.026C582.328 383.396 582.342 384.622 582.023 385.703C581.722 386.802 581.227 387.686 580.539 388.353C580.366 388.538 580.164 388.614 579.933 388.582C579.701 388.55 579.501 388.44 579.333 388.252L578.124 386.899C577.956 386.711 577.868 386.537 577.86 386.377C577.852 386.217 577.92 385.99 578.064 385.697C578.689 384.582 578.932 383.568 578.791 382.654C578.669 381.724 578.213 380.817 577.423 379.934C576.382 378.769 575.18 378.162 573.818 378.113C572.492 378.067 571.054 378.67 569.503 379.923L568.453 380.79L567.51 381.663C566.041 383.046 565.249 384.39 565.132 385.696C565.015 387.002 565.486 388.247 566.545 389.431C567.334 390.314 568.179 390.881 569.079 391.132C569.999 391.366 571.057 391.245 572.254 390.769C572.566 390.664 572.802 390.626 572.962 390.653C573.14 390.664 573.314 390.764 573.482 390.952L574.691 392.304C574.859 392.492 574.936 392.71 574.92 392.958C574.924 393.189 574.823 393.378 574.616 393.524C573.88 394.1 572.932 394.476 571.771 394.653C570.647 394.832 569.418 394.667 568.084 394.159C566.767 393.669 565.496 392.738 564.27 391.367Z" fill="#F2F2F2"/>
<path d="M567.501 409.336C567.395 409.164 567.367 408.975 567.417 408.769C567.467 408.562 567.578 408.406 567.75 408.302C567.902 408.211 568.129 408.147 568.432 408.111L575.886 407.013L586.687 392.061C586.901 391.785 587.051 391.62 587.138 391.568C587.332 391.451 587.533 391.418 587.742 391.468C587.951 391.519 588.115 391.64 588.235 391.833L589.209 393.409C589.421 393.752 589.396 394.12 589.135 394.513L580.375 406.511L595.257 404.417C595.73 404.367 596.079 404.525 596.304 404.889L597.238 406.4C597.358 406.593 597.392 406.793 597.342 407C597.292 407.207 597.181 407.362 597.009 407.466C596.944 407.506 596.716 407.569 596.327 407.657L569.482 411.319C569.009 411.369 568.66 411.212 568.435 410.847L567.501 409.336Z" fill="#F2F2F2"/>
</svg>
