<svg width="45" height="45" viewBox="0 0 45 45" fill="none" xmlns="http://www.w3.org/2000/svg">
<path d="M28.1 18.5371C26.637 18.5371 25.216 18.8208 23.8768 19.3802C23.4334 19.5655 23.2241 20.0751 23.4093 20.5185C23.5945 20.962 24.1041 21.171 24.5475 20.986C25.6733 20.5157 26.8684 20.2773 28.1 20.2773C33.1856 20.2773 37.323 24.4148 37.323 29.5003C37.323 34.5859 33.1856 38.7234 28.1 38.7234C23.0143 38.7234 18.8769 34.5859 18.8769 29.5003C18.8769 28.2707 19.1146 27.0771 19.5835 25.953C19.7685 25.5094 19.5589 24.9999 19.1154 24.815C18.6722 24.6302 18.1624 24.8396 17.9774 25.2831C17.4196 26.6207 17.1367 28.0395 17.1367 29.5003C17.1367 35.5455 22.0548 40.4636 28.1 40.4636C34.1451 40.4636 39.0632 35.5455 39.0632 29.5003C39.0632 23.4552 34.1451 18.5371 28.1 18.5371Z" fill="#009dff"/>
<path d="M28.0996 36.6358C32.0338 36.6358 35.2345 33.4352 35.2345 29.501C35.2345 25.5669 32.0338 22.3662 28.0996 22.3662C24.1655 22.3662 20.9648 25.5669 20.9648 29.501C20.9648 33.4352 24.1656 36.6358 28.0996 36.6358ZM28.0996 24.1064C31.0743 24.1064 33.4943 26.5265 33.4943 29.501C33.4943 32.4755 31.0743 34.8956 28.0996 34.8956C25.125 34.8956 22.705 32.4756 22.705 29.501C22.705 26.5264 25.125 24.1064 28.0996 24.1064Z" fill="#009dff"/>
<path d="M40.5659 14.3616H37.9191L34.8811 9.22045C34.7246 8.9555 34.4397 8.79297 34.1321 8.79297H22.0667C21.7589 8.79297 21.4741 8.9555 21.3176 9.22045L18.2797 14.3616H13.3071V13.3175C13.3071 11.5902 11.902 10.1851 10.1748 10.1851C8.44755 10.1851 7.04243 11.5902 7.04243 13.3175V14.3616H4.84248C2.40925 14.3616 0.429688 16.3412 0.429688 18.7745V40.2281C0.429688 42.6614 2.40925 44.641 4.84248 44.641H40.5658C42.999 44.641 44.9786 42.6614 44.9786 40.2281V18.7745C44.9787 16.3412 42.999 14.3616 40.5659 14.3616ZM22.5631 10.5332H33.6355L35.8977 14.3616H20.3009L22.5631 10.5332ZM8.78263 13.3175C8.78263 12.5499 9.40718 11.9253 10.1748 11.9253C10.9424 11.9253 11.5669 12.5499 11.5669 13.3175V14.3616H8.78263V13.3175ZM43.2385 40.2281C43.2385 41.7019 42.0396 42.9008 40.5659 42.9008H4.84248C3.36879 42.9008 2.16988 41.7018 2.16988 40.2281V18.7745C2.16988 17.3007 3.36879 16.1018 4.84248 16.1018H40.5658C42.0395 16.1018 43.2384 17.3007 43.2384 18.7745V40.2281H43.2385Z" fill="#009dff"/>
<path d="M28.1006 27.8046C29.0362 27.8046 29.7973 28.5658 29.7973 29.5013C29.7973 29.9819 30.1868 30.3714 30.6674 30.3714C31.1479 30.3714 31.5375 29.9819 31.5375 29.5013C31.5375 27.6063 29.9956 26.0645 28.1006 26.0645C27.62 26.0645 27.2305 26.4541 27.2305 26.9346C27.2305 27.415 27.62 27.8046 28.1006 27.8046Z" fill="#009dff"/>
<path d="M28.1006 6.50233C28.5811 6.50233 28.9707 6.1127 28.9707 5.63224V0.988262C28.9707 0.507794 28.5811 0.118164 28.1006 0.118164C27.62 0.118164 27.2305 0.507707 27.2305 0.988262V5.63224C27.2305 6.11279 27.62 6.50233 28.1006 6.50233Z" fill="#009dff"/>
<path d="M32.2392 6.50396C32.4619 6.50396 32.6846 6.41895 32.8545 6.24911L36.0469 3.05663C36.3867 2.71686 36.3867 2.16591 36.0469 1.82605C35.7071 1.48637 35.1561 1.48637 34.8164 1.82605L31.624 5.01862C31.2842 5.35839 31.2842 5.90934 31.624 6.2492C31.7939 6.41904 32.0166 6.50396 32.2392 6.50396Z" fill="#009dff"/>
<path d="M23.3418 6.24908C23.5117 6.41892 23.7344 6.50393 23.957 6.50393C24.1797 6.50393 24.4024 6.41892 24.5723 6.24908C24.9121 5.9093 24.9121 5.35836 24.5724 5.0185L21.3799 1.82602C21.0401 1.48642 20.4892 1.48633 20.1494 1.82602C19.8096 2.16579 19.8095 2.71674 20.1493 3.0566L23.3418 6.24908Z" fill="#009dff"/>
<path d="M12.4356 21.4971H7.91111C7.43056 21.4971 7.04102 21.8867 7.04102 22.3672C7.04102 22.8477 7.43056 23.2373 7.91111 23.2373H12.4356C12.9162 23.2373 13.3057 22.8477 13.3057 22.3672C13.3057 21.8866 12.9162 21.4971 12.4356 21.4971Z" fill="#009dff"/>
<path d="M20.9599 23.2373C21.1888 23.2373 21.4133 23.1442 21.5751 22.9823C21.7369 22.8205 21.83 22.5968 21.83 22.3672C21.83 22.1383 21.7369 21.9138 21.5751 21.752C21.4133 21.5903 21.1888 21.4971 20.9599 21.4971C20.7311 21.4971 20.5066 21.5902 20.3448 21.752C20.1821 21.9138 20.0898 22.1384 20.0898 22.3672C20.0898 22.596 20.1821 22.8205 20.3448 22.9823C20.5066 23.1442 20.7302 23.2373 20.9599 23.2373Z" fill="#009dff"/>
</svg>
