<svg width="70" height="97" viewBox="0 0 70 97" fill="none" xmlns="http://www.w3.org/2000/svg">
<path fill-rule="evenodd" clip-rule="evenodd" d="M8.51903 0.0429688C8.34217 0.0429688 8.16583 0.0451786 7.99003 0.0495722H63.2278C63.052 0.0451786 62.8757 0.0429688 62.6988 0.0429688H8.51903ZM62.8526 96.9996H8.36528C8.41648 96.9999 8.46773 97.0001 8.51902 97.0001H62.6988C62.7501 97.0001 62.8014 96.9999 62.8526 96.9996ZM55.1268 82.657H69.3114L69.3173 57.2762C69.3173 44.8162 66.6666 35.2385 52.2899 35.2385C49.5924 35.1371 46.9183 35.7786 44.5524 37.0947C42.1864 38.4108 40.2172 40.3522 38.8544 42.7121H38.6638V36.3894H25.0466V82.6555H39.2312V59.7679C39.2312 53.7324 40.3615 47.8871 47.7493 47.8871C55.0322 47.8871 55.1268 54.7934 55.1268 60.1584V82.657ZM4.46815 28.6609C5.82198 29.5767 7.41355 30.0654 9.04158 30.0651C10.1226 30.0649 11.1929 29.8491 12.1915 29.4299C13.1902 29.0107 14.0975 28.3965 14.8617 27.6222C15.6259 26.8479 16.2321 25.9287 16.6456 24.9171C17.0591 23.9055 17.2718 22.8214 17.2716 21.7265C17.2713 20.0776 16.7883 18.4658 15.8835 17.095C14.9788 15.7241 13.693 14.6558 12.1888 14.025C10.6846 13.3943 9.02947 13.2295 7.43277 13.5515C5.83607 13.8734 4.3695 14.6677 3.21851 15.8339C2.06752 17.0001 1.2838 18.4857 0.966475 20.103C0.649147 21.7203 0.812457 23.3966 1.43575 24.9199C2.05904 26.4432 3.11433 27.745 4.46815 28.6609ZM1.9345 82.657H16.1339V36.3894H1.9345V82.657Z" fill="white"/>
</svg>
