<svg width="74" height="63" viewBox="0 0 74 63" fill="none" xmlns="http://www.w3.org/2000/svg">
<path d="M23.2713 62.6733C50.7134 62.6733 65.7204 38.6958 65.7204 17.9033C65.7204 17.2223 65.7072 16.5445 65.6782 15.8694C68.598 13.6411 71.1181 10.882 73.1202 7.72144C70.447 8.97477 67.5703 9.81839 64.5528 10.1988C67.6328 8.25057 69.9975 5.16922 71.1132 1.49569C68.1844 3.32815 64.9805 4.61985 61.6395 5.31514C58.917 2.25669 55.0413 0.34375 50.7493 0.34375C42.5103 0.34375 35.8291 7.39048 35.8291 16.0766C35.8291 17.3114 35.9602 18.5125 36.2161 19.6644C23.8165 19.0063 12.8213 12.7451 5.46276 3.22436C4.13743 5.62548 3.44028 8.35464 3.44254 11.133C3.44254 16.5921 6.07646 21.4114 10.0817 24.2307C7.71259 24.1545 5.3954 23.4796 3.32493 22.2627C3.32273 22.3288 3.32273 22.3932 3.32273 22.4637C3.32273 30.0841 8.46538 36.4465 15.292 37.8882C14.0098 38.2565 12.6868 38.4428 11.3579 38.442C10.4169 38.4414 9.47798 38.3463 8.55396 38.1582C10.4534 44.4102 15.9611 48.9598 22.491 49.0869C17.3847 53.3081 10.9522 55.8222 3.96108 55.8222C2.75832 55.8222 1.57021 55.7502 0.402344 55.6045C7.00518 60.0681 14.8454 62.6726 23.2721 62.6726" fill="white"/>
</svg>
