<svg width="301" height="301" viewBox="0 0 301 301" fill="none" xmlns="http://www.w3.org/2000/svg">
<rect x="2.25157" y="2.19737" width="296.889" height="296.889" rx="15.9047" fill="url(#paint0_linear_1282_6206)"/>
<rect x="2.25157" y="2.19737" width="296.889" height="296.889" rx="15.9047" stroke="url(#paint1_linear_1282_6206)" stroke-width="3.53439"/>
<g clip-path="url(#clip0_1282_6206)">
<path d="M216.423 248.134H65.9994C64.4297 248.134 63.1578 246.856 63.1578 245.278V222.428C63.1578 220.851 64.4297 219.572 65.9994 219.572H77.3657C78.9354 219.572 80.2073 220.851 80.2073 222.428C80.2073 224.006 78.9354 225.285 77.3657 225.285H68.841V242.422H85.8905V222.428C85.8905 220.851 87.1624 219.572 88.7321 219.572H98.7329C87.1715 213.028 77.2085 203.937 69.5135 192.829C59.1652 177.892 53.6953 160.341 53.6953 142.073C53.6953 93.0402 93.382 53.1489 142.163 53.1489C159.032 53.1489 175.437 57.939 189.603 67.002C190.927 67.849 191.317 69.6142 190.474 70.9452C189.631 72.2754 187.876 72.668 186.552 71.8211C173.299 63.3426 157.95 58.8614 142.164 58.8614C96.5161 58.8614 59.3789 96.1901 59.3789 142.073C59.3789 176.586 80.011 206.985 111.957 219.572H172.37C203.842 207.167 224.948 176.091 224.948 142.073C224.948 117.444 214.181 94.2181 195.406 78.3519C194.205 77.337 194.05 75.5353 195.06 74.3281C196.07 73.1205 197.862 72.9643 199.063 73.98C219.126 90.9338 230.631 115.753 230.631 142.073C230.631 160.403 225.127 178.004 214.714 192.973C214.658 193.054 214.602 193.134 214.546 193.214L223.282 202.346L235.541 190.444L228.786 183.318C227.703 182.176 227.747 180.367 228.883 179.279C230.02 178.191 231.818 178.235 232.9 179.377L241.602 188.557C247.707 194.909 249.37 203.926 245.93 212.074C245.899 212.146 236.254 234.982 236.241 235.01C232.783 243.108 225.198 248.134 216.423 248.134ZM205.237 242.422H216.423C218.491 242.422 220.469 242.043 222.287 241.332V225.285H205.237V242.422ZM182.504 242.422H199.554V225.285H182.504V242.422ZM159.772 242.422H176.821V225.285H159.772V242.422ZM137.039 242.422H154.089V225.285H137.039V242.422ZM114.306 242.422H131.356V225.285H114.306V242.422ZM91.5737 242.422H108.623V225.285H91.5737V242.422ZM227.97 225.206V237.469C229.235 236.111 230.281 234.506 231.046 232.693C231.057 232.666 234.965 223.417 234.965 223.417C232.796 224.386 230.441 224.998 227.97 225.206ZM185.596 219.572H226.076C227.607 219.572 229.089 219.364 230.494 218.968C229.797 217.677 228.912 216.47 227.848 215.362L211.084 197.836C203.997 206.692 195.368 214.041 185.596 219.572ZM227.221 206.464L231.94 211.398C233.417 212.935 234.64 214.625 235.596 216.443C237.737 214.833 239.473 212.653 240.618 210.029L240.697 209.842C240.707 209.819 240.717 209.795 240.728 209.772C242.848 204.687 242.275 199.151 239.299 194.737L227.221 206.464ZM142.163 150.642C137.463 150.642 133.639 146.798 133.639 142.073C133.639 137.348 137.463 133.504 142.163 133.504C146.864 133.504 150.688 137.348 150.688 142.073C150.688 146.798 146.864 150.642 142.163 150.642ZM142.163 139.217C140.596 139.217 139.322 140.498 139.322 142.073C139.322 143.648 140.596 144.929 142.163 144.929C143.73 144.929 145.005 143.648 145.005 142.073C145.005 140.498 143.73 139.217 142.163 139.217ZM142.163 114.598C132.638 114.598 123.481 106.521 119.986 103.049C114.861 97.9575 108.877 89.8077 108.877 83.5968C108.877 72.9297 123.498 64.5739 142.163 64.5739C160.829 64.5739 175.45 72.9297 175.45 83.5968C175.45 89.8081 169.466 97.9575 164.341 103.049C160.846 106.521 151.688 114.598 142.163 114.598ZM115.76 87.8434C117.215 90.9959 119.982 95.0126 123.981 98.9861C130.22 105.185 137.017 108.885 142.163 108.885C147.309 108.885 154.106 105.185 160.346 98.9861C164.345 95.0126 167.111 90.9967 168.567 87.8438C160.401 83.8256 151.32 81.7109 142.163 81.7109C133.008 81.7113 123.924 83.826 115.76 87.8434ZM142.163 75.9988C151.617 75.9988 160.999 78.0595 169.538 81.9866C168.795 79.3566 166.272 76.7658 162.364 74.691C157.015 71.8504 149.841 70.2863 142.163 70.2863C134.485 70.2863 127.311 71.8504 121.963 74.6906C118.055 76.765 115.532 79.3562 114.789 81.9858C123.327 78.0599 132.712 75.9988 142.163 75.9988ZM76.5481 155.824C66.4552 152.528 63.0672 135.968 68.8353 118.124C74.6033 100.281 87.0275 88.8857 97.1204 92.1818C102.997 94.1012 108.859 102.34 112.093 108.813C114.298 113.227 119.111 124.477 116.167 133.583C114.263 139.476 109.142 144.148 105.183 147.029C103.912 147.954 102.135 147.668 101.215 146.39C100.294 145.113 100.579 143.327 101.85 142.402C106.48 139.032 109.645 135.274 110.762 131.818C112.352 126.898 110.951 119.257 107.014 111.377C104.49 106.326 101.545 102.441 99.0122 100.075C92.6872 106.639 87.88 114.667 85.0505 123.42C82.2214 132.172 81.4156 141.51 82.6935 150.556L82.7257 150.549C85.3233 150.231 88.6843 149.345 92.5083 147.693C93.9504 147.07 95.6212 147.741 96.2411 149.19C96.8609 150.639 96.1941 152.319 94.7521 152.942C92.0086 154.127 86.0193 156.415 80.704 156.415C79.2404 156.415 77.828 156.242 76.5481 155.824ZM79.6454 121.655C82.5666 112.618 87.4158 104.285 93.77 97.3364C91.0519 97.2339 87.8209 98.8456 84.65 101.94C80.31 106.175 76.6129 112.55 74.2404 119.89C71.8678 127.23 71.1309 134.571 72.1656 140.562C72.9211 144.938 74.5931 148.151 76.8516 149.674C75.7748 140.299 76.7247 130.69 79.6454 121.655ZM126.097 164.301C133.802 169.928 136.488 181.873 137.285 186.747C138.454 193.893 138.53 204.022 134.898 209.047C128.66 217.677 111.945 215.799 96.8438 204.771C81.7429 193.743 74.8003 178.344 81.0382 169.715C84.6705 164.69 94.2773 161.632 101.401 160.541C106.259 159.797 118.391 158.673 126.097 164.301ZM131.813 201.545C132.479 198.135 132.589 193.251 131.678 187.673C130.254 178.972 126.92 171.963 122.756 168.922C118.593 165.882 110.93 164.86 102.258 166.188C96.6987 167.04 92.112 168.655 89.0909 170.346C93.3472 178.421 99.4577 185.497 106.866 190.907C114.272 196.316 122.858 199.972 131.813 201.545ZM103.525 195.528C95.8769 189.943 89.4913 182.732 84.8796 174.51C83.9427 177.077 84.4693 180.664 86.4171 184.651C89.0833 190.109 93.9727 195.613 100.184 200.149C106.396 204.686 113.115 207.659 119.103 208.521C123.477 209.151 127.034 208.546 129.173 206.858C119.969 204.99 111.172 201.112 103.525 195.528ZM158.23 164.301C165.935 158.673 178.067 159.797 182.925 160.541C190.049 161.632 199.656 164.69 203.288 169.714C209.526 178.344 202.583 193.743 187.482 204.771C172.381 215.799 155.666 217.677 149.428 209.047C145.796 204.022 145.872 193.893 147.041 186.746C147.839 181.873 150.524 169.928 158.23 164.301ZM195.236 170.346C192.215 168.655 187.628 167.04 182.069 166.188C173.397 164.86 165.733 165.882 161.57 168.922C157.407 171.962 154.072 178.972 152.649 187.673C151.737 193.251 151.848 198.134 152.514 201.545C161.469 199.972 170.053 196.317 177.461 190.907C184.868 185.498 190.98 178.42 195.236 170.346ZM180.802 195.528C173.154 201.113 164.358 204.989 155.154 206.857C157.293 208.546 160.849 209.151 165.224 208.521C171.212 207.659 177.931 204.686 184.142 200.149C190.354 195.613 195.243 190.109 197.91 184.651C199.857 180.665 200.384 177.077 199.447 174.511C194.835 182.732 188.448 189.944 180.802 195.528ZM168.16 133.583C165.216 124.477 170.028 113.227 172.234 108.813C175.468 102.34 181.33 94.1012 187.206 92.1818C197.299 88.8854 209.724 100.281 215.492 118.124C221.26 135.968 217.872 152.528 207.779 155.824C201.902 157.743 192.342 154.541 185.941 151.215C181.575 148.946 171.103 142.688 168.16 133.583ZM185.315 100.074C182.782 102.44 179.836 106.326 177.313 111.377C173.376 119.257 171.975 126.898 173.565 131.818C175.155 136.737 180.757 142.091 188.55 146.14C193.546 148.736 198.201 150.139 201.633 150.556C202.912 141.509 202.106 132.174 199.277 123.42C196.447 114.668 191.639 106.637 185.315 100.074ZM204.681 121.655C207.602 130.692 208.552 140.298 207.475 149.674C209.734 148.151 211.406 144.938 212.161 140.561C213.196 134.571 212.459 127.229 210.086 119.889C207.713 112.549 204.016 106.175 199.676 101.939C196.506 98.8452 193.275 97.2336 190.557 97.3356C196.91 104.285 201.76 112.62 204.681 121.655Z" fill="white"/>
</g>
<defs>
<linearGradient id="paint0_linear_1282_6206" x1="300.907" y1="300.853" x2="-47.9557" y2="104.347" gradientUnits="userSpaceOnUse">
<stop stop-color="#2D0096"/>
<stop offset="1" stop-color="#7033FF"/>
</linearGradient>
<linearGradient id="paint1_linear_1282_6206" x1="150.696" y1="0.430176" x2="150.696" y2="300.853" gradientUnits="userSpaceOnUse">
<stop stop-color="#986CFF"/>
<stop offset="1" stop-color="#6E31FB"/>
</linearGradient>
<clipPath id="clip0_1282_6206">
<rect width="194" height="195" fill="white" transform="translate(53.6953 53.1416)"/>
</clipPath>
</defs>
</svg>
