<svg width="301" height="301" viewBox="0 0 301 301" fill="none" xmlns="http://www.w3.org/2000/svg">
<rect x="2.22813" y="2.19688" width="296.889" height="296.889" rx="15.9047" fill="url(#paint0_linear_1282_6205)"/>
<rect x="2.22813" y="2.19688" width="296.889" height="296.889" rx="15.9047" stroke="url(#paint1_linear_1282_6205)" stroke-width="3.53439"/>
<path d="M225.24 72.2156H76.4901C70.6906 72.2222 65.1304 74.5241 61.0295 78.6163C56.9286 82.7085 54.6219 88.2568 54.6152 94.044V198.821C54.6219 204.608 56.9286 210.157 61.0295 214.249C65.1304 218.341 70.6906 220.643 76.4901 220.649H124.615C125.768 220.638 126.87 220.173 127.682 219.356C128.493 218.538 128.948 217.434 128.948 216.284C128.948 215.133 128.493 214.029 127.682 213.212C126.87 212.394 125.768 211.929 124.615 211.918V190.09H128.991C129.569 190.095 130.142 189.987 130.678 189.77C131.213 189.553 131.701 189.232 132.112 188.826C132.522 188.42 132.848 187.937 133.071 187.405C133.293 186.872 133.408 186.301 133.408 185.724C133.408 185.147 133.293 184.576 133.071 184.044C132.848 183.511 132.522 183.028 132.112 182.622C131.701 182.216 131.213 181.895 130.678 181.679C130.142 181.462 129.569 181.353 128.991 181.358H63.3655V111.507H238.365V142.067C238.376 143.218 238.842 144.317 239.661 145.127C240.481 145.936 241.587 146.391 242.74 146.391C243.893 146.391 245 145.936 245.819 145.127C246.638 144.317 247.104 143.218 247.115 142.067V94.044C247.108 88.2568 244.802 82.7085 240.701 78.6163C236.6 74.5241 231.04 72.2222 225.24 72.2156ZM115.865 190.09V211.918H93.9902V190.09H115.865ZM85.2404 190.09V211.918H76.4901C73.0103 211.914 69.6742 210.533 67.2136 208.078C64.7531 205.622 63.369 202.293 63.3651 198.821V190.09H85.2404ZM63.3651 102.776V94.044C63.369 90.5716 64.7531 87.2426 67.2136 84.7872C69.6742 82.3319 73.0103 80.9508 76.4901 80.9469H85.2404V102.775L63.3651 102.776ZM93.9902 102.776V80.9469H115.865V102.775L93.9902 102.776ZM124.615 102.776V80.9469H146.49V102.775L124.615 102.776ZM155.241 102.776V80.9469H177.115V102.775L155.241 102.776ZM185.866 102.776V80.9469H207.741V102.775L185.866 102.776ZM216.491 102.776V80.9469H225.241C228.72 80.9508 232.057 82.3319 234.517 84.7872C236.978 87.2426 238.362 90.5716 238.366 94.044V102.775L216.491 102.776Z" fill="white"/>
<path d="M246.529 161.432C245.948 160.429 244.993 159.698 243.872 159.399C242.751 159.099 241.557 159.257 240.552 159.836L200.234 183.065L178.283 170.418C179.531 166.101 179.15 161.477 177.213 157.421C175.276 153.365 171.917 150.157 167.771 148.405C163.625 146.652 158.979 146.476 154.712 147.91C150.445 149.344 146.852 152.288 144.612 156.186C142.372 160.083 141.641 164.665 142.557 169.064C143.473 173.463 145.972 177.375 149.583 180.06C153.193 182.746 157.664 184.018 162.15 183.637C166.637 183.256 170.828 181.248 173.931 177.992L191.486 188.105L173.91 198.231C170.788 194.97 166.577 192.965 162.073 192.593C157.569 192.221 153.085 193.51 149.469 196.214C145.853 198.918 143.355 202.851 142.448 207.269C141.541 211.687 142.288 216.283 144.548 220.189C146.808 224.094 150.423 227.038 154.711 228.463C158.998 229.888 163.66 229.696 167.816 227.923C171.971 226.15 175.331 222.918 177.26 218.84C179.189 214.762 179.554 210.12 178.285 205.792L200.236 193.145L240.554 216.374C241.052 216.661 241.601 216.847 242.171 216.922C242.74 216.997 243.319 216.959 243.874 216.811C244.429 216.662 244.949 216.406 245.405 216.057C245.861 215.708 246.243 215.273 246.531 214.776C246.818 214.28 247.004 213.732 247.079 213.163C247.154 212.595 247.116 212.018 246.968 211.464C246.819 210.91 246.562 210.391 246.213 209.936C245.863 209.481 245.427 209.099 244.929 208.813L208.985 188.103L244.929 167.393C245.933 166.814 246.666 165.861 246.965 164.743C247.265 163.625 247.108 162.434 246.529 161.432ZM163.113 174.644C160.939 175.225 158.63 175.036 156.58 174.109C154.53 173.183 152.866 171.575 151.87 169.561C150.875 167.547 150.61 165.251 151.121 163.063C151.632 160.876 152.887 158.934 154.673 157.566C156.458 156.199 158.664 155.492 160.913 155.566C163.162 155.639 165.317 156.489 167.009 157.969C168.701 159.45 169.826 161.47 170.193 163.686C170.559 165.902 170.144 168.176 169.019 170.121C168.383 171.227 167.533 172.196 166.52 172.972C165.506 173.749 164.348 174.317 163.113 174.644ZM165.459 219.347C163.793 220.306 161.879 220.751 159.96 220.625C158.041 220.5 156.202 219.809 154.676 218.64C153.15 217.472 152.006 215.878 151.388 214.06C150.77 212.243 150.705 210.283 151.203 208.429C151.701 206.575 152.738 204.91 154.184 203.644C155.63 202.379 157.42 201.569 159.327 201.319C161.234 201.068 163.173 201.387 164.898 202.236C166.623 203.084 168.057 204.424 169.02 206.086C170.307 208.316 170.655 210.965 169.987 213.451C169.32 215.937 167.691 218.058 165.459 219.347Z" fill="white"/>
<defs>
<linearGradient id="paint0_linear_1282_6205" x1="300.884" y1="300.853" x2="-47.9791" y2="104.346" gradientUnits="userSpaceOnUse">
<stop stop-color="#2D0096"/>
<stop offset="1" stop-color="#7033FF"/>
</linearGradient>
<linearGradient id="paint1_linear_1282_6205" x1="150.672" y1="0.429687" x2="150.672" y2="300.853" gradientUnits="userSpaceOnUse">
<stop stop-color="#986CFF"/>
<stop offset="1" stop-color="#6E31FB"/>
</linearGradient>
</defs>
</svg>
