<svg width="301" height="301" viewBox="0 0 301 301" fill="none" xmlns="http://www.w3.org/2000/svg">
<rect x="2.10313" y="2.19737" width="296.889" height="296.889" rx="15.9047" fill="url(#paint0_linear_1282_6203)"/>
<rect x="2.10313" y="2.19737" width="296.889" height="296.889" rx="15.9047" stroke="url(#paint1_linear_1282_6203)" stroke-width="3.53439"/>
<g clip-path="url(#clip0_1282_6203)">
<path d="M209.699 76.4763H191.424V68.3414C191.424 65.7094 188.539 64.5132 185.894 64.5132H171.707C168.341 54.9424 159.925 50.1571 150.306 50.1571C140.794 49.8012 132.142 55.6051 128.906 64.5132H114.959C112.314 64.5132 109.669 65.7094 109.669 68.3414V76.4763H91.3939C80.5642 76.5913 71.7043 85.0922 71.1953 95.8568V232.957C71.1953 243.485 80.8136 251.141 91.3939 251.141H209.699C220.279 251.141 229.898 243.485 229.898 232.957V95.8573C229.389 85.0921 220.529 76.5913 209.699 76.4763ZM119.287 74.0839H132.512C134.821 73.8036 136.675 72.056 137.081 69.7771C138.505 63.6064 143.946 59.1769 150.306 59.0102C156.608 59.2002 161.967 63.6435 163.291 69.7771C163.722 72.1347 165.699 73.9048 168.1 74.0839H181.806V93.2253H119.287V74.0839ZM220.279 232.957C220.279 238.221 214.989 241.571 209.699 241.571H91.3939C86.1038 241.571 80.8136 238.221 80.8136 232.957V95.8573C81.3043 90.3781 85.8663 86.1478 91.3939 86.0475H109.669V98.2502C109.923 100.931 112.256 102.937 114.959 102.796H185.894C188.646 102.946 191.052 100.968 191.424 98.2502V86.047H209.699C215.226 86.1478 219.788 90.3776 220.279 95.8568V232.957H220.279Z" fill="white"/>
<path d="M132.03 157.11C130.226 155.218 127.232 155.111 125.297 156.871L109.907 171.466L103.415 164.766C101.611 162.874 98.617 162.768 96.6821 164.527C94.8195 166.469 94.8195 169.524 96.6821 171.466L106.541 181.515C107.394 182.466 108.627 182.992 109.907 182.951C111.175 182.933 112.385 182.417 113.273 181.515L132.029 163.809C133.888 162.112 134.013 159.236 132.306 157.386C132.219 157.29 132.127 157.198 132.03 157.11Z" fill="white"/>
<path d="M201.044 167.398H145.739C143.083 167.398 140.93 169.54 140.93 172.183C140.93 174.826 143.083 176.969 145.739 176.969H201.044C203.7 176.969 205.853 174.826 205.853 172.183C205.853 169.54 203.7 167.398 201.044 167.398Z" fill="white"/>
<path d="M132.03 118.827C130.226 116.935 127.232 116.828 125.297 118.588L109.907 133.183L103.415 126.483C101.611 124.591 98.617 124.485 96.6821 126.244C94.8195 128.186 94.8195 131.241 96.6821 133.183L106.541 143.232C107.394 144.183 108.627 144.709 109.907 144.668C111.175 144.65 112.385 144.134 113.273 143.232L132.029 125.527C133.888 123.829 134.013 120.953 132.306 119.103C132.219 119.007 132.127 118.915 132.03 118.827Z" fill="white"/>
<path d="M201.044 129.115H145.739C143.083 129.115 140.93 131.258 140.93 133.901C140.93 136.544 143.083 138.686 145.739 138.686H201.044C203.7 138.686 205.853 136.544 205.853 133.901C205.853 131.258 203.7 129.115 201.044 129.115Z" fill="white"/>
<path d="M132.03 195.392C130.226 193.5 127.232 193.394 125.297 195.153L109.907 209.748L103.415 203.048C101.611 201.157 98.617 201.05 96.6821 202.809C94.8195 204.751 94.8195 207.806 96.6821 209.748L106.541 219.797C107.394 220.748 108.627 221.274 109.907 221.233C111.175 221.215 112.385 220.699 113.273 219.797L132.029 202.092C133.888 200.395 134.013 197.518 132.306 195.669C132.219 195.573 132.127 195.48 132.03 195.392Z" fill="white"/>
<path d="M201.044 205.681H145.739C143.083 205.681 140.93 207.823 140.93 210.466C140.93 213.109 143.083 215.252 145.739 215.252H201.044C203.7 215.252 205.853 213.109 205.853 210.466C205.853 207.823 203.7 205.681 201.044 205.681Z" fill="white"/>
</g>
<defs>
<linearGradient id="paint0_linear_1282_6203" x1="300.759" y1="300.853" x2="-48.1041" y2="104.347" gradientUnits="userSpaceOnUse">
<stop stop-color="#2D0096"/>
<stop offset="0.483101" stop-color="#8652FF"/>
<stop offset="1" stop-color="#7033FF"/>
</linearGradient>
<linearGradient id="paint1_linear_1282_6203" x1="150.547" y1="0.430176" x2="150.547" y2="300.853" gradientUnits="userSpaceOnUse">
<stop stop-color="#986CFF"/>
<stop offset="1" stop-color="#6E31FB"/>
</linearGradient>
<clipPath id="clip0_1282_6203">
<rect width="202" height="201" fill="white" transform="translate(49.5469 50.1416)"/>
</clipPath>
</defs>
</svg>
